<svg width="22" height="21" viewBox="0 0 22 21" fill="none" xmlns="http://www.w3.org/2000/svg">
<circle cx="10.8475" cy="12.5" r="7.5" fill="#F9E160"/>
<g filter="url(#filter0_i_11_564)">
<circle cx="10.8475" cy="12.5" r="6.22881" fill="#FE881C" fill-opacity="0.72"/>
</g>
<g filter="url(#filter1_d_11_564)">
<path d="M10.5598 16.6949V15.8514C9.65275 15.7826 8.94355 15.4577 8.43219 14.8766L9.02573 14.033C9.44577 14.4954 9.95713 14.7735 10.5598 14.8672V13.0583C10.2737 12.9833 10.0363 12.9114 9.84756 12.8427C9.65884 12.7677 9.46099 12.6646 9.25402 12.5334C9.04704 12.3959 8.88876 12.221 8.77918 12.0085C8.67569 11.7898 8.62395 11.5336 8.62395 11.2399C8.62395 10.7588 8.80049 10.3495 9.15357 10.0121C9.50665 9.67469 9.9754 9.48098 10.5598 9.43099V8.55932H11.2903V9.44037C12.0269 9.5216 12.6387 9.80278 13.1257 10.2839L12.5139 11.0994C12.1791 10.7619 11.7712 10.5432 11.2903 10.4433V12.0554C11.5156 12.1179 11.7073 12.1772 11.8656 12.2335C12.0239 12.2897 12.1974 12.3709 12.3861 12.4772C12.5809 12.5771 12.7361 12.6896 12.8518 12.8146C12.9675 12.9333 13.0649 13.0895 13.144 13.2832C13.2231 13.4769 13.2627 13.6956 13.2627 13.9393C13.2627 14.4517 13.0953 14.886 12.7605 15.2421C12.4317 15.592 11.9417 15.7951 11.2903 15.8514V16.6949H10.5598ZM11.9569 14.5673C12.103 14.4111 12.1761 14.2361 12.1761 14.0424C12.1761 13.8487 12.1 13.6925 11.9478 13.5738C11.7956 13.4488 11.5764 13.3426 11.2903 13.2551V14.8766C11.5886 14.8266 11.8108 14.7235 11.9569 14.5673ZM9.71972 11.165C9.71972 11.4649 9.99975 11.6961 10.5598 11.8585V10.3964C10.298 10.4214 10.0911 10.5057 9.93887 10.6495C9.79277 10.7869 9.71972 10.9588 9.71972 11.165Z" fill="#FFEA7C"/>
</g>
<g style="mix-blend-mode:overlay" filter="url(#filter2_f_11_564)">
<circle cx="10.9746" cy="10.339" r="4.0678" fill="white"/>
</g>
<defs>
<filter id="filter0_i_11_564" x="4.61865" y="6.27119" width="12.4576" height="12.7119" filterUnits="userSpaceOnUse" color-interpolation-filters="sRGB">
<feFlood flood-opacity="0" result="BackgroundImageFix"/>
<feBlend mode="normal" in="SourceGraphic" in2="BackgroundImageFix" result="shape"/>
<feColorMatrix in="SourceAlpha" type="matrix" values="0 0 0 0 0 0 0 0 0 0 0 0 0 0 0 0 0 0 127 0" result="hardAlpha"/>
<feMorphology radius="0.254237" operator="erode" in="SourceAlpha" result="effect1_innerShadow_11_564"/>
<feOffset dy="0.254237"/>
<feComposite in2="hardAlpha" operator="arithmetic" k2="-1" k3="1"/>
<feColorMatrix type="matrix" values="0 0 0 0 0 0 0 0 0 0 0 0 0 0 0 0 0 0 0.25 0"/>
<feBlend mode="normal" in2="shape" result="effect1_innerShadow_11_564"/>
</filter>
<filter id="filter1_d_11_564" x="8.43219" y="8.55932" width="4.83051" height="8.38983" filterUnits="userSpaceOnUse" color-interpolation-filters="sRGB">
<feFlood flood-opacity="0" result="BackgroundImageFix"/>
<feColorMatrix in="SourceAlpha" type="matrix" values="0 0 0 0 0 0 0 0 0 0 0 0 0 0 0 0 0 0 127 0" result="hardAlpha"/>
<feOffset dy="0.254237"/>
<feComposite in2="hardAlpha" operator="out"/>
<feColorMatrix type="matrix" values="0 0 0 0 0 0 0 0 0 0 0 0 0 0 0 0 0 0 0.25 0"/>
<feBlend mode="normal" in2="BackgroundImageFix" result="effect1_dropShadow_11_564"/>
<feBlend mode="normal" in="SourceGraphic" in2="effect1_dropShadow_11_564" result="shape"/>
</filter>
<filter id="filter2_f_11_564" x="0.805105" y="0.169488" width="20.339" height="20.339" filterUnits="userSpaceOnUse" color-interpolation-filters="sRGB">
<feFlood flood-opacity="0" result="BackgroundImageFix"/>
<feBlend mode="normal" in="SourceGraphic" in2="BackgroundImageFix" result="shape"/>
<feGaussianBlur stdDeviation="3.05085" result="effect1_foregroundBlur_11_564"/>
</filter>
</defs>
</svg>
