<svg width="50" height="62" viewBox="0 0 50 62" fill="none" xmlns="http://www.w3.org/2000/svg">
<path d="M34.1243 13.054L29.8157 16.1562L31.7115 18.9137L36.3648 17.1903L39.984 18.052L41.5351 14.0881L44.8097 12.0199L43.7756 10.1241L33.7796 6.50488L34.1243 13.054Z" fill="#ABABAB"/>
<path d="M32.9179 12.3646L28.6093 15.4668L30.505 18.2243L35.1584 16.5009L38.7776 17.3626L40.3287 13.3987L43.6033 11.3305L42.5692 9.43475L32.5732 5.8155L32.9179 12.3646Z" fill="#767674"/>
<path d="M46.8778 4.26439L46.1884 6.67722C46.131 6.84957 46.0506 7.22873 46.1884 7.3666C46.3263 7.50448 47.28 8.34322 47.7395 8.74536L49.6353 5.98784V3.40266L46.8778 4.26439Z" fill="#767674"/>
<path d="M9.99602 51.8316L6.37677 55.9679L7.92788 58.8978V62H10.6854L13.6153 56.485L16.5451 55.9679L19.992 52.8657H24.99L28.4369 47.523L37.0542 45.7996L38.6053 42.1803L37.5712 41.3186C37.6287 40.2271 37.7091 37.6993 37.5712 36.3206C37.3989 34.5971 38.95 30.9779 39.6394 28.9097C40.1909 27.2552 38.1457 23.8543 37.0542 22.3606L32.9179 24.4288L34.1243 27.1863L32.9179 33.2184L31.0221 35.1142V37.1823L24.99 42.1803L23.6113 44.0761L13.6153 45.1102L9.99602 50.4529V51.8316Z" fill="#ABABAB"/>
<path d="M8.61729 51.1423L4.99805 55.2785L6.54915 58.2084V61.3106H9.30667L12.2365 55.7956L15.1664 55.2785L18.6133 52.1763H23.6113L27.0582 46.8336L35.6755 45.1102L37.2266 41.4909L36.1925 40.6292C36.25 39.5377 36.3304 37.01 36.1925 35.6312C36.0202 33.9077 37.5713 30.2885 38.2607 28.2204C38.8122 26.5658 36.767 23.1649 35.6755 21.6712L31.5392 23.7394L32.7456 26.4969L31.5392 32.529L29.6434 34.4248V36.4929L23.6113 41.4909L22.2326 43.3867L12.2365 44.4208L8.61729 49.7635V51.1423Z" fill="#767674"/>
<path d="M1.55111 46.1442L0 48.3847L1.20642 49.7635L2.06814 50.1082L2.75752 49.2465C2.98732 48.7869 3.48137 47.8332 3.61925 47.6953C3.75712 47.5575 3.5618 46.9485 3.4469 46.6613L2.41283 45.9719L1.55111 46.1442Z" fill="#767674"/>
<path d="M29.6433 56.6573L26.1964 58.5531V61.1383H28.6092C28.9539 61.1383 30.6774 59.2425 30.6774 58.5531C30.6774 58.0016 29.988 57.0594 29.6433 56.6573Z" fill="#767674"/>
<path d="M7.73891 0C4.87594 0 2.54767 2.29501 2.54767 5.11709C2.54767 8.66408 6.20502 13.324 6.40402 13.521C6.48542 13.6008 6.59553 13.6456 6.7103 13.6456C6.82507 13.6456 7.88723 13.6456 8.0452 13.6456C8.24419 13.4485 12.9302 8.66408 12.9302 5.11709C12.9302 2.29501 10.6019 0 7.73891 0Z" fill="#E98122"/>
<path d="M6.55233 0C3.68936 0 1.36108 2.29501 1.36108 5.11709C1.36108 8.66408 6.04705 13.324 6.24604 13.521C6.32745 13.6008 6.43756 13.6456 6.55233 13.6456C6.6671 13.6456 6.77721 13.6008 6.85861 13.521C7.05761 13.324 11.7436 8.66408 11.7436 5.11709C11.7436 2.29501 9.4153 0 6.55233 0Z" fill="#FD902B"/>
<path d="M6.84898 7.7127C8.24154 7.7127 9.37044 6.5838 9.37044 5.19124C9.37044 3.79867 8.24154 2.66978 6.84898 2.66978C5.45641 2.66978 4.32751 3.79867 4.32751 5.19124C4.32751 6.5838 5.45641 7.7127 6.84898 7.7127Z" fill="#FAFAFA"/>
</svg>
