<svg width="21" height="21" viewBox="0 0 21 21" fill="none" xmlns="http://www.w3.org/2000/svg">
<circle cx="10.5" cy="12.5" r="7.5" fill="#F9E160"/>
<g filter="url(#filter0_i_2027_150)">
<circle cx="10.5" cy="12.5" r="6.22881" fill="#FE881C" fill-opacity="0.72"/>
</g>
<g filter="url(#filter1_d_2027_150)">
<path d="M10.2123 16.6949V15.8514C9.30528 15.7826 8.59607 15.4577 8.08472 14.8766L8.67826 14.033C9.0983 14.4954 9.60966 14.7735 10.2123 14.8672V13.0583C9.92622 12.9833 9.6888 12.9114 9.50008 12.8427C9.31137 12.7677 9.11352 12.6646 8.90654 12.5334C8.69956 12.3959 8.54129 12.221 8.43171 12.0085C8.32822 11.7898 8.27648 11.5336 8.27648 11.2399C8.27648 10.7588 8.45302 10.3495 8.8061 10.0121C9.15918 9.67469 9.62792 9.48098 10.2123 9.431V8.55933H10.9428V9.44037C11.6794 9.5216 12.2912 9.80278 12.7783 10.2839L12.1665 11.0994C11.8316 10.7619 11.4238 10.5432 10.9428 10.4433V12.0554C11.1681 12.1179 11.3598 12.1772 11.5181 12.2335C11.6764 12.2897 11.8499 12.3709 12.0386 12.4772C12.2334 12.5771 12.3886 12.6896 12.5043 12.8146C12.62 12.9333 12.7174 13.0895 12.7965 13.2832C12.8757 13.4769 12.9152 13.6956 12.9152 13.9393C12.9152 14.4517 12.7478 14.886 12.413 15.2421C12.0843 15.5921 11.5942 15.7951 10.9428 15.8514V16.6949H10.2123ZM11.6094 14.5673C11.7555 14.4111 11.8286 14.2361 11.8286 14.0424C11.8286 13.8487 11.7525 13.6925 11.6003 13.5738C11.4481 13.4488 11.229 13.3426 10.9428 13.2551V14.8766C11.2411 14.8266 11.4633 14.7235 11.6094 14.5673ZM9.37224 11.165C9.37224 11.4649 9.65227 11.6961 10.2123 11.8586V10.3964C9.95057 10.4214 9.74359 10.5057 9.5914 10.6495C9.44529 10.7869 9.37224 10.9588 9.37224 11.165Z" fill="#FFEA7C"/>
</g>
<g style="mix-blend-mode:overlay" filter="url(#filter2_f_2027_150)">
<circle cx="10.6271" cy="10.339" r="4.0678" fill="white"/>
</g>
<defs>
<filter id="filter0_i_2027_150" x="4.27118" y="6.27118" width="12.4576" height="12.7119" filterUnits="userSpaceOnUse" color-interpolation-filters="sRGB">
<feFlood flood-opacity="0" result="BackgroundImageFix"/>
<feBlend mode="normal" in="SourceGraphic" in2="BackgroundImageFix" result="shape"/>
<feColorMatrix in="SourceAlpha" type="matrix" values="0 0 0 0 0 0 0 0 0 0 0 0 0 0 0 0 0 0 127 0" result="hardAlpha"/>
<feMorphology radius="0.254237" operator="erode" in="SourceAlpha" result="effect1_innerShadow_2027_150"/>
<feOffset dy="0.254237"/>
<feComposite in2="hardAlpha" operator="arithmetic" k2="-1" k3="1"/>
<feColorMatrix type="matrix" values="0 0 0 0 0 0 0 0 0 0 0 0 0 0 0 0 0 0 0.25 0"/>
<feBlend mode="normal" in2="shape" result="effect1_innerShadow_2027_150"/>
</filter>
<filter id="filter1_d_2027_150" x="8.08472" y="8.55933" width="4.83051" height="8.38983" filterUnits="userSpaceOnUse" color-interpolation-filters="sRGB">
<feFlood flood-opacity="0" result="BackgroundImageFix"/>
<feColorMatrix in="SourceAlpha" type="matrix" values="0 0 0 0 0 0 0 0 0 0 0 0 0 0 0 0 0 0 127 0" result="hardAlpha"/>
<feOffset dy="0.254237"/>
<feComposite in2="hardAlpha" operator="out"/>
<feColorMatrix type="matrix" values="0 0 0 0 0 0 0 0 0 0 0 0 0 0 0 0 0 0 0.25 0"/>
<feBlend mode="normal" in2="BackgroundImageFix" result="effect1_dropShadow_2027_150"/>
<feBlend mode="normal" in="SourceGraphic" in2="effect1_dropShadow_2027_150" result="shape"/>
</filter>
<filter id="filter2_f_2027_150" x="0.457632" y="0.169485" width="20.339" height="20.339" filterUnits="userSpaceOnUse" color-interpolation-filters="sRGB">
<feFlood flood-opacity="0" result="BackgroundImageFix"/>
<feBlend mode="normal" in="SourceGraphic" in2="BackgroundImageFix" result="shape"/>
<feGaussianBlur stdDeviation="3.05085" result="effect1_foregroundBlur_2027_150"/>
</filter>
</defs>
</svg>
