<svg width="40" height="40" viewBox="0 0 40 40" fill="none" xmlns="http://www.w3.org/2000/svg">
<circle cx="20.0355" cy="24.379" r="14.5355" fill="#F9E160"/>
<g filter="url(#filter0_i_11_1198)">
<circle cx="20.0355" cy="24.379" r="12.0719" fill="#FE881C" fill-opacity="0.72"/>
</g>
<g filter="url(#filter1_d_11_1198)">
<path d="M19.4781 32.509V30.8742C17.7202 30.741 16.3457 30.1112 15.3546 28.985L16.5049 27.3501C17.319 28.2463 18.3101 28.7852 19.4781 28.9668V25.461C18.9236 25.3156 18.4634 25.1764 18.0977 25.0432C17.7319 24.8979 17.3485 24.698 16.9474 24.4437C16.5462 24.1773 16.2395 23.8382 16.0271 23.4265C15.8265 23.0026 15.7263 22.5061 15.7263 21.9369C15.7263 21.0045 16.0684 20.2112 16.7527 19.5573C17.437 18.9034 18.3455 18.5279 19.4781 18.4311V16.7417H20.8939V18.4492C22.3214 18.6067 23.5072 19.1516 24.451 20.0841L23.2653 21.6645C22.6164 21.0105 21.8259 20.5867 20.8939 20.3929V23.5173C21.3304 23.6384 21.702 23.7534 22.0088 23.8624C22.3155 23.9714 22.6518 24.1289 23.0175 24.3347C23.3951 24.5285 23.6959 24.7465 23.9201 24.9887C24.1443 25.2188 24.333 25.5215 24.4864 25.8969C24.6398 26.2723 24.7165 26.6962 24.7165 27.1685C24.7165 28.1615 24.392 29.0032 23.7431 29.6934C23.106 30.3716 22.1563 30.7652 20.8939 30.8742V32.509H19.4781ZM22.1858 28.3856C22.4689 28.0828 22.6105 27.7437 22.6105 27.3683C22.6105 26.9929 22.463 26.6901 22.1681 26.4601C21.8731 26.2178 21.4484 26.012 20.8939 25.8424V28.985C21.472 28.8881 21.9026 28.6883 22.1858 28.3856ZM17.8499 21.7916C17.8499 22.3729 18.3926 22.821 19.4781 23.1358V20.3021C18.9708 20.3505 18.5696 20.514 18.2747 20.7925C17.9915 21.0589 17.8499 21.392 17.8499 21.7916Z" fill="#FFEA7C"/>
</g>
<g style="mix-blend-mode:overlay" filter="url(#filter2_f_11_1198)">
<circle cx="20.2819" cy="20.1908" r="7.88367" fill="white"/>
</g>
<defs>
<filter id="filter0_i_11_1198" x="7.96362" y="12.3071" width="24.1437" height="24.6365" filterUnits="userSpaceOnUse" color-interpolation-filters="sRGB">
<feFlood flood-opacity="0" result="BackgroundImageFix"/>
<feBlend mode="normal" in="SourceGraphic" in2="BackgroundImageFix" result="shape"/>
<feColorMatrix in="SourceAlpha" type="matrix" values="0 0 0 0 0 0 0 0 0 0 0 0 0 0 0 0 0 0 127 0" result="hardAlpha"/>
<feMorphology radius="0.49273" operator="erode" in="SourceAlpha" result="effect1_innerShadow_11_1198"/>
<feOffset dy="0.49273"/>
<feComposite in2="hardAlpha" operator="arithmetic" k2="-1" k3="1"/>
<feColorMatrix type="matrix" values="0 0 0 0 0 0 0 0 0 0 0 0 0 0 0 0 0 0 0.25 0"/>
<feBlend mode="normal" in2="shape" result="effect1_innerShadow_11_1198"/>
</filter>
<filter id="filter1_d_11_1198" x="15.3546" y="16.7417" width="9.36188" height="16.2601" filterUnits="userSpaceOnUse" color-interpolation-filters="sRGB">
<feFlood flood-opacity="0" result="BackgroundImageFix"/>
<feColorMatrix in="SourceAlpha" type="matrix" values="0 0 0 0 0 0 0 0 0 0 0 0 0 0 0 0 0 0 127 0" result="hardAlpha"/>
<feOffset dy="0.49273"/>
<feComposite in2="hardAlpha" operator="out"/>
<feColorMatrix type="matrix" values="0 0 0 0 0 0 0 0 0 0 0 0 0 0 0 0 0 0 0.25 0"/>
<feBlend mode="normal" in2="BackgroundImageFix" result="effect1_dropShadow_11_1198"/>
<feBlend mode="normal" in="SourceGraphic" in2="effect1_dropShadow_11_1198" result="shape"/>
</filter>
<filter id="filter2_f_11_1198" x="0.572744" y="0.481619" width="39.4184" height="39.4184" filterUnits="userSpaceOnUse" color-interpolation-filters="sRGB">
<feFlood flood-opacity="0" result="BackgroundImageFix"/>
<feBlend mode="normal" in="SourceGraphic" in2="BackgroundImageFix" result="shape"/>
<feGaussianBlur stdDeviation="5.91276" result="effect1_foregroundBlur_11_1198"/>
</filter>
</defs>
</svg>
