<svg width="70" height="72" viewBox="0 0 70 72" fill="none" xmlns="http://www.w3.org/2000/svg">
<path d="M69.7557 36.0147V35.8778C69.6873 16.5075 54.0845 0.699341 34.988 0.699341C15.8916 0.699341 0.220337 16.5075 0.220337 36.0147C0.220337 55.5243 15.8207 71.3007 34.988 71.3007C43.7833 71.3067 52.2423 67.9213 58.605 61.849C59.2316 61.2765 59.6052 60.4785 59.6435 59.6305C59.6818 58.7825 59.3816 57.954 58.8091 57.3274C58.2366 56.7007 57.4385 56.3271 56.5905 56.2888C55.7425 56.2505 54.9141 56.5507 54.2874 57.1232L54.219 57.1917C51.4736 59.8015 48.2292 61.8298 44.6805 63.1545C41.1318 64.4793 37.352 65.0733 33.568 64.9009C29.784 64.7285 26.0738 63.7933 22.6603 62.1513C19.2467 60.5093 16.2002 58.1945 13.7035 55.3458L28.5557 31.5285V42.5497C28.5557 47.8158 30.6094 49.5296 32.3354 50.0088C34.0615 50.488 36.6505 50.1408 39.4547 45.6937L47.6033 32.4624C47.8209 32.0761 48.0727 31.7094 48.3514 31.3647V38.0757C48.3514 43.002 50.3366 46.9723 53.7569 48.8866C55.3358 49.7463 57.118 50.1623 58.9143 50.0904C60.7107 50.0186 62.454 49.4615 63.9591 48.4784C67.9099 45.9137 70.032 41.4226 69.7557 36.0147ZM60.7197 42.9457C60.1711 43.3237 59.5313 43.5481 58.8668 43.5959C58.2023 43.6436 57.5371 43.5128 56.94 43.2171C55.5709 42.3981 54.747 40.5523 54.747 38.0194V30.262C54.747 26.5704 53.3095 23.8982 50.8476 23.2185C46.6694 21.957 43.5253 27.118 42.3592 29.0347L34.988 40.8725V26.2966C34.9196 22.9447 33.8219 20.9595 31.7682 20.341C30.3991 19.9327 28.3455 20.1405 26.3627 23.1525L9.86757 49.5687C7.67317 45.3873 6.52316 40.737 6.51573 36.0147C6.51573 20.0672 19.3119 7.13165 34.988 7.13165C50.6642 7.13165 63.4604 20.0672 63.4604 36.0147V36.154C63.6242 39.2296 62.6365 41.6989 60.7222 42.9262L60.7197 42.9457Z" fill="white"/>
</svg>
